<svg width="100" height="100" viewBox="0 0 100 100" fill="none" xmlns="http://www.w3.org/2000/svg">
<rect width="100" height="100" rx="50" fill="black" fill-opacity="0.05"/>
<g filter="url(#filter0_d_1_292)">
<mask id="path-2-inside-1_1_292" fill="white">
<path d="M81.1303 23.5993C77.5976 19.4282 72.9549 17.2157 67.6957 17.2157C64.2936 17.2157 61.1888 17.8033 58.4685 18.9567C56.2488 19.8997 54.2829 21.2127 52.6363 22.8739C51.7803 23.7299 51.0984 24.5859 50.5616 25.3693C49.546 24.1942 48.1823 22.8086 46.463 21.5174C42.6184 18.6303 36.213 15.6198 27.5299 17.68L27.4428 17.7018C27.2615 17.7525 22.9598 19.0002 19.1079 22.7506C15.5244 26.2326 11.6435 32.5799 13.4642 43.0475C13.6673 44.2372 14.7917 45.0279 15.9741 44.8248C16.0177 44.8175 19.4706 44.2154 23.8013 43.2724C23.5619 44.9118 23.4241 46.6455 23.3878 48.4736C23.2645 54.4727 24.2583 59.3692 24.2946 59.5723C24.4324 60.2397 24.8749 60.7983 25.4842 61.0957C25.7817 61.2408 26.1008 61.306 26.42 61.306C26.761 61.306 27.1019 61.2262 27.4138 61.0667C31.1134 59.1661 34.7695 56.7432 38.2732 53.8634C40.7613 51.8177 43.1842 49.5399 45.4837 47.0808C46.1366 49.5762 46.8983 53.2903 47.0869 57.6572C47.0941 57.8966 47.1087 58.136 47.1159 58.3754C47.0941 58.4915 47.0869 58.6075 47.0869 58.7236C47.0869 58.8759 47.1014 59.0283 47.1304 59.1733C47.1957 64.2512 46.434 68.6617 44.8599 72.296C44.8526 72.3105 44.8454 72.3322 44.8381 72.3468C43.808 74.6971 42.4225 76.7355 40.7106 78.4112C38.8027 80.2755 36.4379 81.748 33.6668 82.7781C33.6088 82.7999 33.5508 82.8216 33.5 82.8507H18.6291C17.483 82.8507 16.5545 83.7792 16.5545 84.9253C16.5545 86.0715 17.483 87 18.6291 87H81.8557C83.0018 87 83.9304 86.0715 83.9304 84.9253C83.9304 83.7792 83.0018 82.8507 81.8557 82.8507H64.8812C65.9185 81.2693 67.0356 79.1728 67.8843 76.5541C69.103 72.811 69.5455 68.7487 69.2046 64.4833C68.9725 61.6107 68.3849 58.6438 67.4418 55.6116C70.9383 58.4697 73.5643 60.4428 73.6006 60.4718C74.2317 60.9433 75.0659 61.0376 75.784 60.7257C76.5022 60.4065 76.9955 59.7247 77.068 58.9412C77.6193 53.2323 77.5976 48.2342 77.0027 43.9615C77.7136 44.1574 78.5116 44.346 79.4038 44.5128C82.0951 45.0279 84.6413 45.2383 84.7501 45.2455C84.8081 45.2528 84.8661 45.2528 84.9242 45.2528C85.976 45.2528 86.89 44.4911 87.0641 43.432C87.9346 38.2453 86.1501 29.5332 81.1303 23.5993ZM22.0023 26.0004C24.9039 23.1206 28.2045 22.0252 28.589 21.9091C34.1674 20.6034 39.2597 21.6117 43.7283 24.9123C44.2288 25.2823 44.693 25.6595 45.121 26.044C38.6939 25.2968 33.5798 26.6606 29.8584 30.128C27.6097 32.2244 25.9195 35.068 24.8314 38.5863C21.9297 39.2536 19.2385 39.7904 17.4467 40.1314C16.9027 34.2991 18.426 29.5549 22.0023 26.0004ZM63.8366 74.9655C62.9516 77.7946 61.7039 79.8765 60.8116 81.1242C60.3328 81.7916 59.9049 82.2994 59.5857 82.6476H42.5386C44.8962 80.6599 46.7967 78.2298 48.2403 75.3572H56.4737C57.6706 75.3572 58.6499 74.3852 58.6499 73.181C58.6499 71.9768 57.6778 71.0048 56.4737 71.0048H49.9668C50.888 67.9725 51.3958 64.5921 51.4829 60.9071H58.0913C59.2883 60.9071 60.2676 59.935 60.2676 58.7308C60.2676 57.5267 59.2955 56.5546 58.0913 56.5546H51.3958C51.0041 50.2146 49.5896 45.318 48.8859 43.2144C49.8217 42.0755 50.6051 41.0527 51.2362 40.1967C53.2238 42.7719 56.2851 45.9129 60.3909 49.598C60.4199 49.6777 60.4489 49.7575 60.4852 49.8373C62.9878 55.0168 64.4532 60.0003 64.8594 64.6502C65.1713 68.3135 64.8304 71.7809 63.8366 74.9655ZM73.042 54.538C66.5133 49.3731 55.799 40.2765 53.1876 35.3147C52.8249 34.6255 52.1212 34.183 51.345 34.154C50.5688 34.125 49.8362 34.5167 49.4227 35.1768C49.3357 35.3074 41.4142 47.8497 28.0957 55.7277C27.8781 53.8851 27.6677 51.3462 27.7258 48.5679C27.9071 39.7034 30.5911 35.38 32.8109 33.3125C35.0379 31.2379 38.0701 30.2005 41.864 30.2005C44.3448 30.2005 47.1449 30.643 50.2642 31.528C50.2714 31.528 50.2787 31.528 50.2859 31.5353C50.3295 31.5498 50.373 31.5571 50.4165 31.5643C50.431 31.5643 50.4455 31.5716 50.46 31.5716C50.5181 31.5788 50.5689 31.5933 50.6269 31.5933C50.6559 31.5933 50.6777 31.6006 50.7067 31.6006C50.7357 31.6006 50.7647 31.6078 50.7937 31.6078H50.9533C50.9896 31.6078 51.0259 31.6006 51.0549 31.6006H51.0911C51.0984 31.6006 51.1129 31.6006 51.1202 31.5933C51.1564 31.5861 51.1927 31.5861 51.2217 31.5788C51.2435 31.5716 51.2652 31.5716 51.287 31.5643C51.316 31.5571 51.3523 31.5498 51.3813 31.5426L51.4684 31.5208C51.4901 31.5135 51.5191 31.5063 51.5409 31.499C51.5917 31.4845 51.6497 31.4628 51.7005 31.441C51.7875 31.4047 60.6375 27.7342 66.7309 32.2172C69.0377 33.9146 70.7497 36.6349 71.8015 40.291C72.9187 44.0558 73.3249 48.8435 73.042 54.538ZM80.8039 40.3418C77.409 39.7397 76.3208 39.1013 76.0742 38.9272C76.0089 38.7894 75.9291 38.6661 75.8421 38.55C74.4928 34.183 72.3093 30.8824 69.2989 28.6844C64.8739 25.4419 59.6727 25.3113 55.7845 25.8916C58.6789 23.0335 62.6904 21.5827 67.703 21.5827C71.7 21.5827 75.1022 23.2149 77.8224 26.4212C80.2453 29.2865 81.5003 32.6524 82.1241 34.9737C82.6537 36.9396 82.9366 38.949 82.9438 40.6754C82.2909 40.5884 81.5583 40.4796 80.8039 40.3418Z"/>
</mask>
<path d="M81.1303 23.5993C77.5976 19.4282 72.9549 17.2157 67.6957 17.2157C64.2936 17.2157 61.1888 17.8033 58.4685 18.9567C56.2488 19.8997 54.2829 21.2127 52.6363 22.8739C51.7803 23.7299 51.0984 24.5859 50.5616 25.3693C49.546 24.1942 48.1823 22.8086 46.463 21.5174C42.6184 18.6303 36.213 15.6198 27.5299 17.68L27.4428 17.7018C27.2615 17.7525 22.9598 19.0002 19.1079 22.7506C15.5244 26.2326 11.6435 32.5799 13.4642 43.0475C13.6673 44.2372 14.7917 45.0279 15.9741 44.8248C16.0177 44.8175 19.4706 44.2154 23.8013 43.2724C23.5619 44.9118 23.4241 46.6455 23.3878 48.4736C23.2645 54.4727 24.2583 59.3692 24.2946 59.5723C24.4324 60.2397 24.8749 60.7983 25.4842 61.0957C25.7817 61.2408 26.1008 61.306 26.42 61.306C26.761 61.306 27.1019 61.2262 27.4138 61.0667C31.1134 59.1661 34.7695 56.7432 38.2732 53.8634C40.7613 51.8177 43.1842 49.5399 45.4837 47.0808C46.1366 49.5762 46.8983 53.2903 47.0869 57.6572C47.0941 57.8966 47.1087 58.136 47.1159 58.3754C47.0941 58.4915 47.0869 58.6075 47.0869 58.7236C47.0869 58.8759 47.1014 59.0283 47.1304 59.1733C47.1957 64.2512 46.434 68.6617 44.8599 72.296C44.8526 72.3105 44.8454 72.3322 44.8381 72.3468C43.808 74.6971 42.4225 76.7355 40.7106 78.4112C38.8027 80.2755 36.4379 81.748 33.6668 82.7781C33.6088 82.7999 33.5508 82.8216 33.5 82.8507H18.6291C17.483 82.8507 16.5545 83.7792 16.5545 84.9253C16.5545 86.0715 17.483 87 18.6291 87H81.8557C83.0018 87 83.9304 86.0715 83.9304 84.9253C83.9304 83.7792 83.0018 82.8507 81.8557 82.8507H64.8812C65.9185 81.2693 67.0356 79.1728 67.8843 76.5541C69.103 72.811 69.5455 68.7487 69.2046 64.4833C68.9725 61.6107 68.3849 58.6438 67.4418 55.6116C70.9383 58.4697 73.5643 60.4428 73.6006 60.4718C74.2317 60.9433 75.0659 61.0376 75.784 60.7257C76.5022 60.4065 76.9955 59.7247 77.068 58.9412C77.6193 53.2323 77.5976 48.2342 77.0027 43.9615C77.7136 44.1574 78.5116 44.346 79.4038 44.5128C82.0951 45.0279 84.6413 45.2383 84.7501 45.2455C84.8081 45.2528 84.8661 45.2528 84.9242 45.2528C85.976 45.2528 86.89 44.4911 87.0641 43.432C87.9346 38.2453 86.1501 29.5332 81.1303 23.5993ZM22.0023 26.0004C24.9039 23.1206 28.2045 22.0252 28.589 21.9091C34.1674 20.6034 39.2597 21.6117 43.7283 24.9123C44.2288 25.2823 44.693 25.6595 45.121 26.044C38.6939 25.2968 33.5798 26.6606 29.8584 30.128C27.6097 32.2244 25.9195 35.068 24.8314 38.5863C21.9297 39.2536 19.2385 39.7904 17.4467 40.1314C16.9027 34.2991 18.426 29.5549 22.0023 26.0004ZM63.8366 74.9655C62.9516 77.7946 61.7039 79.8765 60.8116 81.1242C60.3328 81.7916 59.9049 82.2994 59.5857 82.6476H42.5386C44.8962 80.6599 46.7967 78.2298 48.2403 75.3572H56.4737C57.6706 75.3572 58.6499 74.3852 58.6499 73.181C58.6499 71.9768 57.6778 71.0048 56.4737 71.0048H49.9668C50.888 67.9725 51.3958 64.5921 51.4829 60.9071H58.0913C59.2883 60.9071 60.2676 59.935 60.2676 58.7308C60.2676 57.5267 59.2955 56.5546 58.0913 56.5546H51.3958C51.0041 50.2146 49.5896 45.318 48.8859 43.2144C49.8217 42.0755 50.6051 41.0527 51.2362 40.1967C53.2238 42.7719 56.2851 45.9129 60.3909 49.598C60.4199 49.6777 60.4489 49.7575 60.4852 49.8373C62.9878 55.0168 64.4532 60.0003 64.8594 64.6502C65.1713 68.3135 64.8304 71.7809 63.8366 74.9655ZM73.042 54.538C66.5133 49.3731 55.799 40.2765 53.1876 35.3147C52.8249 34.6255 52.1212 34.183 51.345 34.154C50.5688 34.125 49.8362 34.5167 49.4227 35.1768C49.3357 35.3074 41.4142 47.8497 28.0957 55.7277C27.8781 53.8851 27.6677 51.3462 27.7258 48.5679C27.9071 39.7034 30.5911 35.38 32.8109 33.3125C35.0379 31.2379 38.0701 30.2005 41.864 30.2005C44.3448 30.2005 47.1449 30.643 50.2642 31.528C50.2714 31.528 50.2787 31.528 50.2859 31.5353C50.3295 31.5498 50.373 31.5571 50.4165 31.5643C50.431 31.5643 50.4455 31.5716 50.46 31.5716C50.5181 31.5788 50.5689 31.5933 50.6269 31.5933C50.6559 31.5933 50.6777 31.6006 50.7067 31.6006C50.7357 31.6006 50.7647 31.6078 50.7937 31.6078H50.9533C50.9896 31.6078 51.0259 31.6006 51.0549 31.6006H51.0911C51.0984 31.6006 51.1129 31.6006 51.1202 31.5933C51.1564 31.5861 51.1927 31.5861 51.2217 31.5788C51.2435 31.5716 51.2652 31.5716 51.287 31.5643C51.316 31.5571 51.3523 31.5498 51.3813 31.5426L51.4684 31.5208C51.4901 31.5135 51.5191 31.5063 51.5409 31.499C51.5917 31.4845 51.6497 31.4628 51.7005 31.441C51.7875 31.4047 60.6375 27.7342 66.7309 32.2172C69.0377 33.9146 70.7497 36.6349 71.8015 40.291C72.9187 44.0558 73.3249 48.8435 73.042 54.538ZM80.8039 40.3418C77.409 39.7397 76.3208 39.1013 76.0742 38.9272C76.0089 38.7894 75.9291 38.6661 75.8421 38.55C74.4928 34.183 72.3093 30.8824 69.2989 28.6844C64.8739 25.4419 59.6727 25.3113 55.7845 25.8916C58.6789 23.0335 62.6904 21.5827 67.703 21.5827C71.7 21.5827 75.1022 23.2149 77.8224 26.4212C80.2453 29.2865 81.5003 32.6524 82.1241 34.9737C82.6537 36.9396 82.9366 38.949 82.9438 40.6754C82.2909 40.5884 81.5583 40.4796 80.8039 40.3418Z" fill="black"/>
<path d="M81.1303 23.5993C77.5976 19.4282 72.9549 17.2157 67.6957 17.2157C64.2936 17.2157 61.1888 17.8033 58.4685 18.9567C56.2488 19.8997 54.2829 21.2127 52.6363 22.8739C51.7803 23.7299 51.0984 24.5859 50.5616 25.3693C49.546 24.1942 48.1823 22.8086 46.463 21.5174C42.6184 18.6303 36.213 15.6198 27.5299 17.68L27.4428 17.7018C27.2615 17.7525 22.9598 19.0002 19.1079 22.7506C15.5244 26.2326 11.6435 32.5799 13.4642 43.0475C13.6673 44.2372 14.7917 45.0279 15.9741 44.8248C16.0177 44.8175 19.4706 44.2154 23.8013 43.2724C23.5619 44.9118 23.4241 46.6455 23.3878 48.4736C23.2645 54.4727 24.2583 59.3692 24.2946 59.5723C24.4324 60.2397 24.8749 60.7983 25.4842 61.0957C25.7817 61.2408 26.1008 61.306 26.42 61.306C26.761 61.306 27.1019 61.2262 27.4138 61.0667C31.1134 59.1661 34.7695 56.7432 38.2732 53.8634C40.7613 51.8177 43.1842 49.5399 45.4837 47.0808C46.1366 49.5762 46.8983 53.2903 47.0869 57.6572C47.0941 57.8966 47.1087 58.136 47.1159 58.3754C47.0941 58.4915 47.0869 58.6075 47.0869 58.7236C47.0869 58.8759 47.1014 59.0283 47.1304 59.1733C47.1957 64.2512 46.434 68.6617 44.8599 72.296C44.8526 72.3105 44.8454 72.3322 44.8381 72.3468C43.808 74.6971 42.4225 76.7355 40.7106 78.4112C38.8027 80.2755 36.4379 81.748 33.6668 82.7781C33.6088 82.7999 33.5508 82.8216 33.5 82.8507H18.6291C17.483 82.8507 16.5545 83.7792 16.5545 84.9253C16.5545 86.0715 17.483 87 18.6291 87H81.8557C83.0018 87 83.9304 86.0715 83.9304 84.9253C83.9304 83.7792 83.0018 82.8507 81.8557 82.8507H64.8812C65.9185 81.2693 67.0356 79.1728 67.8843 76.5541C69.103 72.811 69.5455 68.7487 69.2046 64.4833C68.9725 61.6107 68.3849 58.6438 67.4418 55.6116C70.9383 58.4697 73.5643 60.4428 73.6006 60.4718C74.2317 60.9433 75.0659 61.0376 75.784 60.7257C76.5022 60.4065 76.9955 59.7247 77.068 58.9412C77.6193 53.2323 77.5976 48.2342 77.0027 43.9615C77.7136 44.1574 78.5116 44.346 79.4038 44.5128C82.0951 45.0279 84.6413 45.2383 84.7501 45.2455C84.8081 45.2528 84.8661 45.2528 84.9242 45.2528C85.976 45.2528 86.89 44.4911 87.0641 43.432C87.9346 38.2453 86.1501 29.5332 81.1303 23.5993ZM22.0023 26.0004C24.9039 23.1206 28.2045 22.0252 28.589 21.9091C34.1674 20.6034 39.2597 21.6117 43.7283 24.9123C44.2288 25.2823 44.693 25.6595 45.121 26.044C38.6939 25.2968 33.5798 26.6606 29.8584 30.128C27.6097 32.2244 25.9195 35.068 24.8314 38.5863C21.9297 39.2536 19.2385 39.7904 17.4467 40.1314C16.9027 34.2991 18.426 29.5549 22.0023 26.0004ZM63.8366 74.9655C62.9516 77.7946 61.7039 79.8765 60.8116 81.1242C60.3328 81.7916 59.9049 82.2994 59.5857 82.6476H42.5386C44.8962 80.6599 46.7967 78.2298 48.2403 75.3572H56.4737C57.6706 75.3572 58.6499 74.3852 58.6499 73.181C58.6499 71.9768 57.6778 71.0048 56.4737 71.0048H49.9668C50.888 67.9725 51.3958 64.5921 51.4829 60.9071H58.0913C59.2883 60.9071 60.2676 59.935 60.2676 58.7308C60.2676 57.5267 59.2955 56.5546 58.0913 56.5546H51.3958C51.0041 50.2146 49.5896 45.318 48.8859 43.2144C49.8217 42.0755 50.6051 41.0527 51.2362 40.1967C53.2238 42.7719 56.2851 45.9129 60.3909 49.598C60.4199 49.6777 60.4489 49.7575 60.4852 49.8373C62.9878 55.0168 64.4532 60.0003 64.8594 64.6502C65.1713 68.3135 64.8304 71.7809 63.8366 74.9655ZM73.042 54.538C66.5133 49.3731 55.799 40.2765 53.1876 35.3147C52.8249 34.6255 52.1212 34.183 51.345 34.154C50.5688 34.125 49.8362 34.5167 49.4227 35.1768C49.3357 35.3074 41.4142 47.8497 28.0957 55.7277C27.8781 53.8851 27.6677 51.3462 27.7258 48.5679C27.9071 39.7034 30.5911 35.38 32.8109 33.3125C35.0379 31.2379 38.0701 30.2005 41.864 30.2005C44.3448 30.2005 47.1449 30.643 50.2642 31.528C50.2714 31.528 50.2787 31.528 50.2859 31.5353C50.3295 31.5498 50.373 31.5571 50.4165 31.5643C50.431 31.5643 50.4455 31.5716 50.46 31.5716C50.5181 31.5788 50.5689 31.5933 50.6269 31.5933C50.6559 31.5933 50.6777 31.6006 50.7067 31.6006C50.7357 31.6006 50.7647 31.6078 50.7937 31.6078H50.9533C50.9896 31.6078 51.0259 31.6006 51.0549 31.6006H51.0911C51.0984 31.6006 51.1129 31.6006 51.1202 31.5933C51.1564 31.5861 51.1927 31.5861 51.2217 31.5788C51.2435 31.5716 51.2652 31.5716 51.287 31.5643C51.316 31.5571 51.3523 31.5498 51.3813 31.5426L51.4684 31.5208C51.4901 31.5135 51.5191 31.5063 51.5409 31.499C51.5917 31.4845 51.6497 31.4628 51.7005 31.441C51.7875 31.4047 60.6375 27.7342 66.7309 32.2172C69.0377 33.9146 70.7497 36.6349 71.8015 40.291C72.9187 44.0558 73.3249 48.8435 73.042 54.538ZM80.8039 40.3418C77.409 39.7397 76.3208 39.1013 76.0742 38.9272C76.0089 38.7894 75.9291 38.6661 75.8421 38.55C74.4928 34.183 72.3093 30.8824 69.2989 28.6844C64.8739 25.4419 59.6727 25.3113 55.7845 25.8916C58.6789 23.0335 62.6904 21.5827 67.703 21.5827C71.7 21.5827 75.1022 23.2149 77.8224 26.4212C80.2453 29.2865 81.5003 32.6524 82.1241 34.9737C82.6537 36.9396 82.9366 38.949 82.9438 40.6754C82.2909 40.5884 81.5583 40.4796 80.8039 40.3418Z" stroke="black" stroke-width="2" mask="url(#path-2-inside-1_1_292)"/>
</g>
<defs>
<filter id="filter0_d_1_292" x="9" y="17" width="82.2757" height="78" filterUnits="userSpaceOnUse" color-interpolation-filters="sRGB">
<feFlood flood-opacity="0" result="BackgroundImageFix"/>
<feColorMatrix in="SourceAlpha" type="matrix" values="0 0 0 0 0 0 0 0 0 0 0 0 0 0 0 0 0 0 127 0" result="hardAlpha"/>
<feOffset dy="4"/>
<feGaussianBlur stdDeviation="2"/>
<feComposite in2="hardAlpha" operator="out"/>
<feColorMatrix type="matrix" values="0 0 0 0 0 0 0 0 0 0 0 0 0 0 0 0 0 0 0.25 0"/>
<feBlend mode="normal" in2="BackgroundImageFix" result="effect1_dropShadow_1_292"/>
<feBlend mode="normal" in="SourceGraphic" in2="effect1_dropShadow_1_292" result="shape"/>
</filter>
</defs>
</svg>
