<svg width="100" height="100" viewBox="0 0 100 100" fill="none" xmlns="http://www.w3.org/2000/svg">
<rect width="100" height="100" rx="50" fill="black" fill-opacity="0.05"/>
<path d="M37.0313 34.1835C38.4516 34.3503 39.648 34.0157 40.5725 32.8763C40.7608 32.6499 41.0307 32.5069 41.3238 32.4781C41.6168 32.4494 41.9094 32.5373 42.1381 32.7229C42.3668 32.9084 42.5131 33.1766 42.5454 33.4693C42.5777 33.762 42.4933 34.0556 42.3106 34.2865C41.404 35.4057 40.3363 36.0392 39.1668 36.31C39.577 36.6166 39.9919 36.917 40.4113 37.211C41.0638 37.6732 44.2289 39.8187 44.4314 40.0213C44.5159 40.1061 44.5862 40.204 44.6396 40.3111C44.9642 40.9603 44.9228 43.0106 44.6732 47.3811C44.5922 48.8117 44.5005 50.2417 44.3979 51.671C47.1914 49.3777 51.4701 44.4678 54.2714 39.4001C53.437 38.2828 52.4995 37.2463 51.4712 36.3044C49.8292 34.7942 48.017 33.4804 46.0711 32.3895C45.836 32.2585 45.6715 32.1735 45.5921 32.1332C45.4044 32.041 45.2463 31.8981 45.1358 31.7206C45.0252 31.5432 44.9665 31.3383 44.9664 31.1293V26.704C44.7538 26.7073 44.5411 26.7152 44.3374 26.7286C44.1136 26.7431 43.9088 26.7644 43.7398 26.7879C43.9032 28.0649 43.9524 28.911 43.8797 29.4773C43.5518 32.0526 40.6732 33.1214 39.2943 31.2401C39.066 30.9289 38.9049 30.5831 38.7773 30.094C37.9267 31.3083 37.2059 33.0733 37.0313 34.1835ZM39.4936 82.8271V81.7079C39.2101 81.6891 38.9444 81.5633 38.7503 81.3559C38.5562 81.1485 38.4482 80.875 38.4482 80.5909V66.9446C38.4482 66.7403 38.5041 66.5399 38.6098 66.3651C38.7156 66.1903 38.8672 66.0478 39.0481 65.953C39.1522 65.8982 39.366 65.7773 39.6726 65.5904C39.9603 65.4147 40.2658 65.2188 40.5881 65.0028C40.5881 64.9938 40.5904 64.986 40.5915 64.9771L40.7627 63.5993L41.2832 59.418L41.2943 59.3374C41.6413 56.5506 41.892 54.5742 42.0017 53.7471L42.0263 53.4303C42.1825 51.373 42.3201 49.3144 42.4393 47.2546C42.5355 45.5669 42.5982 44.1377 42.6206 43.0543C42.6329 42.4533 42.6318 41.9698 42.6184 41.6184C42.616 41.5586 42.6131 41.4989 42.6094 41.4393C41.9189 40.9659 39.9054 39.5971 39.1175 39.0397C38.8717 38.866 38.6269 38.6906 38.3833 38.5137C35.8125 36.6447 34.7527 35.6933 34.7527 34.6413C34.7527 32.6491 36.418 28.7364 38.3777 27.2703L38.3442 26.9054L38.2893 26.3156C38.2712 26.119 38.2526 25.9223 38.2333 25.7258C37.9771 23.1069 37.5932 21.6967 37.197 21.5143C35.4835 20.723 34.9631 18.9356 35.3682 17.4684H33.7655C33.4687 17.4684 33.184 17.3505 32.9741 17.1406C32.7642 16.9307 32.6463 16.646 32.6463 16.3492C32.6463 16.0524 32.7642 15.7677 32.9741 15.5578C33.184 15.3479 33.4687 15.23 33.7655 15.23H35.2742V14.9905C35.2742 13.5691 36.1752 12.3604 37.4376 11.9026V11.1192C37.4376 10.8224 37.5555 10.5377 37.7654 10.3278C37.9753 10.1179 38.26 10 38.5568 10C38.8536 10 39.1383 10.1179 39.3482 10.3278C39.5581 10.5377 39.676 10.8224 39.676 11.1192V11.9026C40.3104 12.1328 40.8585 12.5528 41.2458 13.1055C41.6331 13.6582 41.8407 14.3167 41.8405 14.9916V15.23H43.7487C44.0456 15.23 44.3302 15.3479 44.5401 15.5578C44.75 15.7677 44.8679 16.0524 44.8679 16.3492C44.8679 16.646 44.75 16.9307 44.5401 17.1406C44.3302 17.3505 44.0456 17.4684 43.7487 17.4684H41.7174C42.2569 18.3637 42.6284 19.4762 42.803 20.7051C42.8556 21.0733 42.9228 21.5109 43.0179 22.1007L43.2865 23.7482C43.3307 24.0223 43.3743 24.2965 43.4175 24.5708C43.6547 24.5372 43.9133 24.5148 44.1942 24.4958C44.8419 24.4571 45.4911 24.4519 46.1393 24.4801C46.277 24.4868 46.4079 24.5182 46.5288 24.5697C46.5758 24.4969 46.6251 24.4253 46.6743 24.3548L43.2921 21.333C43.0707 21.1353 42.9368 20.8577 42.92 20.5614C42.9033 20.265 43.0049 19.9741 43.2026 19.7527C43.4003 19.5312 43.6778 19.3974 43.9742 19.3806C44.2705 19.3638 44.5614 19.4654 44.7829 19.6631L48.3251 22.8282C48.6777 22.6212 49.0537 22.4578 49.4499 22.3447V18.1309C49.4499 17.8341 49.5678 17.5494 49.7777 17.3396C49.9876 17.1297 50.2723 17.0118 50.5691 17.0118C50.8659 17.0118 51.1506 17.1297 51.3605 17.3396C51.5704 17.5494 51.6883 17.8341 51.6883 18.1309V22.2585C51.9569 22.3134 52.2166 22.3906 52.4673 22.488L54.728 19.7806C54.9183 19.5527 55.1913 19.4096 55.4871 19.383C55.7828 19.3563 56.077 19.4482 56.305 19.6385C56.5329 19.8288 56.676 20.1018 56.7026 20.3975C56.7293 20.6933 56.6374 20.9875 56.4471 21.2154L54.324 23.756L54.3464 23.7806H57.9972C58.294 23.7806 58.5787 23.8986 58.7886 24.1084C58.9985 24.3183 59.1164 24.603 59.1164 24.8998C59.1164 25.1967 58.9985 25.4813 58.7886 25.6912C58.5787 25.9011 58.294 26.019 57.9972 26.019H55.648C55.751 26.3358 55.8293 26.6648 55.883 27.0039L57.554 27.1785C57.8493 27.2095 58.1203 27.3566 58.3072 27.5874C58.4941 27.8182 58.5817 28.1137 58.5506 28.4091C58.5196 28.7044 58.3725 28.9753 58.1418 29.1622C57.911 29.3491 57.6154 29.4367 57.3201 29.4057L55.845 29.2501C55.8237 29.3598 55.8002 29.4684 55.7745 29.5747C55.8763 29.8142 55.9804 30.1645 56.0722 30.6503C56.3665 32.1947 56.4527 34.5898 56.2199 38.0459C56.2155 38.1089 56.2057 38.1714 56.1908 38.2328L56.3609 38.4712C57.5764 39.2132 59.2227 41.0062 59.8864 42.3649L61.5014 40.7487C61.68 40.5702 61.9139 40.4573 62.1648 40.4284C62.4158 40.3995 62.6691 40.4564 62.8836 40.5898C63.6729 41.0803 64.462 41.5712 65.2507 42.0627L65.2619 42.0694C66.3822 42.7689 67.169 43.2613 67.4835 43.4617C67.7186 43.6115 67.8893 43.8438 67.9621 44.1129C68.035 44.382 68.0048 44.6686 67.8774 44.9166C67.7185 45.2255 65.1914 50.3984 64.3027 52.1925L64.1281 52.5462C62.6777 55.4706 61.5988 57.5747 60.934 58.7409L62.8724 70.5316C62.8987 70.6918 62.8898 70.8558 62.8464 71.0122C62.803 71.1686 62.7261 71.3137 62.621 71.4375C62.5159 71.5612 62.3852 71.6606 62.2378 71.7287C62.0905 71.7969 61.9301 71.8322 61.7678 71.8321H60.5344L61.4208 76.1377C61.429 76.1698 61.4357 76.2023 61.441 76.235L62.7985 82.8282H68.6721C68.9689 82.8282 69.2536 82.9461 69.4635 83.156C69.6734 83.3659 69.7913 83.6506 69.7913 83.9474V88.8808C69.7913 89.1776 69.6734 89.4623 69.4635 89.6722C69.2536 89.8821 68.9689 90 68.6721 90H32.1192C31.8224 90 31.5377 89.8821 31.3278 89.6722C31.1179 89.4623 31 89.1776 31 88.8808V83.9474C31 83.6506 31.1179 83.3659 31.3278 83.156C31.5377 82.9461 31.8224 82.8282 32.1192 82.8282H39.4947L39.4936 82.8271ZM41.732 82.8271H60.512L59.4219 77.5311H49.0269C46.9138 79.1259 44.4885 80.4253 41.732 81.3956V82.8282V82.8271ZM37.5126 15.2289H39.6021V14.9894C39.6021 14.7123 39.4921 14.4465 39.2961 14.2506C39.1002 14.0547 38.8344 13.9446 38.5574 13.9446C38.2803 13.9446 38.0145 14.0547 37.8186 14.2506C37.6227 14.4465 37.5126 14.7123 37.5126 14.9894V15.2289ZM52.8993 25.5266C52.6776 25.2427 52.4093 24.9986 52.1058 24.8047C51.6998 24.5443 51.2282 24.4045 50.7459 24.4018C49.1399 24.4018 47.7689 25.9877 47.7689 28.019C47.7689 30.0492 49.1399 31.634 50.7459 31.634C52.3497 31.634 53.723 30.0492 53.723 28.019C53.723 27.0901 53.4354 26.2552 52.9709 25.6217C52.9454 25.5913 52.9214 25.5595 52.8993 25.5266ZM51.9267 33.7236C52.2871 34.0257 52.6419 34.338 52.9899 34.6603C53.3716 35.0129 53.7398 35.3721 54.0946 35.7392C54.1326 34.4689 54.117 33.4113 54.0543 32.5495C53.4477 33.1091 52.7247 33.5187 51.9278 33.7247L51.9267 33.7236ZM43.075 63.136C44.3852 62.0511 45.6109 60.8681 46.7415 59.5971C50.6419 55.211 53.2798 49.9855 54.1516 43.8646C50.8075 48.8204 46.6172 53.1203 44.1494 54.5865C44.0196 55.5881 43.8002 57.3285 43.5148 59.6139L43.5036 59.6945L43.075 63.1371V63.136ZM60.3363 55.1002C60.8444 54.1097 61.4432 52.92 62.1226 51.5501L62.2971 51.1987C62.9709 49.8377 64.6217 46.4633 65.4309 44.8137C65.066 44.5853 64.6094 44.2988 64.0767 43.9675L64.0666 43.9619L62.4561 42.958L60.3777 45.0375C60.4717 46.1153 60.5344 47.3027 60.5568 48.5741C60.5904 50.6424 60.5087 52.7387 60.2915 54.8304L60.3363 55.1013V55.1002ZM58.1147 44.826C58.1023 44.7614 58.0955 44.6959 58.0946 44.6301C58.0588 44.2591 58.0118 43.8892 57.9535 43.521C57.9133 43.2804 57.4656 42.5853 56.8265 41.8646C56.7627 41.7918 56.6967 41.7191 56.6307 41.6486C56.1259 49.324 53.1231 55.7896 48.4135 61.0845C46.7101 63.0025 44.8038 64.7301 42.728 66.2373C42.067 66.7173 41.3859 67.1692 40.6866 67.5915V79.3878C43.3895 78.4701 45.7487 77.2154 47.789 75.6542C47.873 75.5635 47.9715 75.4863 48.0811 75.427C52.8534 71.6497 55.826 66.16 57.3022 59.3979C57.6312 57.8892 57.8741 56.3604 58.0408 54.8248C58.0424 54.7606 58.0495 54.6965 58.0621 54.6335C58.2714 52.6234 58.3509 50.6044 58.3184 48.6122C58.2992 47.348 58.2313 46.085 58.1147 44.826ZM40.2915 79.5187L40.2692 79.5266L40.6128 80.5909V79.4717H40.4348C40.3878 79.4885 40.3397 79.5031 40.2915 79.5187C40.4587 79.4687 40.6353 79.4584 40.8072 79.4887C40.9791 79.519 41.1415 79.5891 41.2815 79.6934C41.4214 79.7977 41.5351 79.9333 41.6133 80.0893C41.6915 80.2454 41.7321 80.4175 41.732 80.5921V81.3956L40.2915 79.5187ZM51.6032 75.2938H58.9619L58.0655 70.9401C58.0317 70.7773 58.0347 70.6089 58.0741 70.4473C58.1136 70.2858 58.1886 70.135 58.2936 70.0061C58.3987 69.8771 58.5312 69.7732 58.6814 69.7019C58.8317 69.6305 58.996 69.5936 59.1623 69.5937H60.4516L59.113 61.4572C57.6849 66.9737 55.2294 71.6732 51.6032 75.2938ZM40.4628 25.5064C40.5024 25.9046 40.5397 26.3031 40.5747 26.7017C40.7594 28.7241 40.9194 29.671 41.1007 29.9183C41.1903 30.0414 41.5708 29.9004 41.6603 29.1953C41.7308 28.6447 41.5618 27.1539 41.1791 24.7364L41.0783 24.1052C41.0425 23.8926 40.8579 22.7611 40.8097 22.4566C40.7313 21.9783 40.6575 21.4993 40.5881 21.0196C40.2837 18.8752 39.2652 17.4684 38.1841 17.4684C37.394 17.4684 37.1097 19.0084 38.136 19.4829C39.6435 20.1768 40.1058 21.878 40.4628 25.5064ZM33.2384 87.7616H67.5518V85.0666H33.2384V87.7616Z" fill="#212121"/>
</svg>
