<svg width="100" height="100" viewBox="0 0 100 100" fill="none" xmlns="http://www.w3.org/2000/svg">
<rect width="100" height="100" rx="50" fill="black" fill-opacity="0.05"/>
<path d="M44.1814 53.055H55.4469C54.2467 50.7709 50.9643 23.4284 51.7718 16.2212C51.3263 15.1386 51.8195 15.5355 51.4669 15.5355H48.3833C48.0294 15.5355 47.9911 15.5572 48.0494 16.2212C48.661 23.0067 45.3679 50.7705 44.1814 53.055ZM49.8612 29.0933L51.2343 46.2491H48.5822L49.8612 29.0933Z" fill="white"/>
<path d="M55.4469 53.6939H44.1814C44.0715 53.6941 43.9635 53.666 43.8677 53.6122C43.7719 53.5585 43.6916 53.4809 43.6345 53.387C43.5775 53.2931 43.5457 53.1861 43.5422 53.0763C43.5387 52.9665 43.5636 52.8576 43.6145 52.7603C44.7197 50.6329 48.0392 23.2235 47.4127 16.2787C47.3756 15.8583 47.3411 15.4622 47.6124 15.1658C47.859 14.8966 48.187 14.8966 48.3829 14.8966H51.3008C51.6687 14.7109 52.1274 14.9362 52.2228 15.3161C52.2475 15.4132 52.2492 15.5121 52.2301 15.6066C52.2492 15.6769 52.2876 15.7953 52.3634 15.9784C52.4042 16.0778 52.4193 16.1859 52.4073 16.2927C51.5848 23.6323 55.027 50.882 56.0134 52.7577C56.0646 52.8552 56.0898 52.9642 56.0865 53.0742C56.0832 53.1842 56.0515 53.2916 55.9945 53.3857C55.9375 53.4799 55.8571 53.5578 55.7612 53.6118C55.6653 53.6657 55.557 53.694 55.4469 53.6939ZM45.0655 52.4161H54.5713C53.1824 47.0153 50.4323 23.2069 51.1202 16.3111C51.1029 16.2659 51.0863 16.2204 51.0703 16.1748H48.6866C49.2483 22.4551 46.5353 46.8641 45.0655 52.4161ZM51.2339 46.8879H48.5818C48.4939 46.8879 48.407 46.8698 48.3264 46.8347C48.2459 46.7996 48.1734 46.7482 48.1136 46.6838C48.0538 46.6194 48.0079 46.5433 47.9789 46.4604C47.9498 46.3775 47.9381 46.2894 47.9446 46.2018L49.2236 29.046C49.2355 28.8855 49.3076 28.7353 49.4254 28.6257C49.5432 28.516 49.6981 28.4548 49.8591 28.4544H49.8608C50.0214 28.4544 50.176 28.5149 50.294 28.6238C50.412 28.7327 50.4847 28.8821 50.4975 29.0422L51.8706 46.198C51.8777 46.2859 51.8665 46.3743 51.8377 46.4577C51.8089 46.541 51.7631 46.6175 51.7033 46.6823C51.6435 46.7471 51.5709 46.7989 51.4901 46.8343C51.4093 46.8696 51.3221 46.8879 51.2339 46.8879ZM49.2705 45.6102H50.5422L49.8838 37.383L49.2705 45.6102Z" fill="#1D1E21"/>
<path d="M70.0903 85.4961L60.1395 67.8829C60.0806 67.7785 59.9949 67.6916 59.8913 67.6311C59.7878 67.5707 59.67 67.5388 59.5501 67.5388H39.7597C39.6397 67.5388 39.522 67.5707 39.4184 67.6311C39.3148 67.6916 39.2292 67.7785 39.1702 67.8829L29.2198 85.4961H27.6384V87.3616H38.2477V85.4961H37.5002L40.3678 79.3171L40.3683 79.3167C40.3972 79.2571 43.3747 73.3434 49.6555 73.3434C56.1412 73.3434 58.8231 79.0552 58.9334 79.2988C58.9347 79.3014 58.9364 79.3031 58.9372 79.3056L61.9841 85.4961H61.0625V87.3616H69.983C69.9877 87.3607 69.9924 87.3607 69.9971 87.3616H71.6717V85.4961H70.0903Z" fill="white"/>
<path d="M71.6717 88H61.0625C60.893 88 60.7305 87.9327 60.6107 87.8129C60.4909 87.6931 60.4236 87.5306 60.4236 87.3611V85.4957C60.4236 85.3438 60.4778 85.1968 60.5764 85.0812C60.6749 84.9656 60.8115 84.8889 60.9615 84.8649L58.3725 79.6046C58.3686 79.5974 58.3648 79.591 58.3618 79.5842C58.2481 79.3341 55.7536 73.9818 49.6555 73.9818C43.8164 73.9818 40.9688 79.5441 40.9407 79.5999L38.4811 84.9003C38.7187 84.9935 38.887 85.2248 38.887 85.4953V87.3607C38.887 87.5302 38.8197 87.6926 38.6998 87.8125C38.58 87.9323 38.4175 87.9996 38.2481 87.9996H27.6389C27.4694 87.9996 27.3069 87.9323 27.1871 87.8125C27.0673 87.6926 27 87.5302 27 87.3607V85.4953C27 85.3258 27.0673 85.1633 27.1871 85.0435C27.3069 84.9237 27.4694 84.8564 27.6389 84.8564H28.8471L38.614 67.5677C38.7287 67.3649 38.8952 67.1961 39.0965 67.0787C39.2978 66.9613 39.5266 66.8995 39.7596 66.8995H59.5505C59.7836 66.8995 60.0125 66.9615 60.2138 67.0791C60.4151 67.1966 60.5816 67.3656 60.6962 67.5686L70.4634 84.8564H71.6717C71.8411 84.8564 72.0036 84.9237 72.1235 85.0435C72.2433 85.1633 72.3106 85.3258 72.3106 85.4953V87.3607C72.3106 87.4447 72.2941 87.5278 72.2621 87.6053C72.23 87.6829 72.1829 87.7534 72.1236 87.8127C72.0643 87.8721 71.9938 87.9192 71.9163 87.9513C71.8388 87.9835 71.7556 88 71.6717 88ZM70.0171 86.7223H71.0329V86.1345H70.0908C69.9776 86.1346 69.8665 86.1045 69.7688 86.0475C69.671 85.9905 69.5902 85.9085 69.5345 85.81L59.5837 68.1972L54.3984 68.1776H39.7596L29.776 85.81C29.7204 85.9085 29.6395 85.9905 29.5418 86.0475C29.4441 86.1045 29.333 86.1346 29.2198 86.1345H28.2773V86.7223H37.6088V86.1345H37.5002C37.3929 86.1346 37.2873 86.1075 37.1932 86.056C37.0991 86.0044 37.0195 85.93 36.9617 85.8396C36.904 85.7491 36.8699 85.6456 36.8627 85.5385C36.8555 85.4315 36.8754 85.3243 36.9206 85.2269L39.7882 79.0479C39.8248 78.9726 42.9709 72.7041 49.6551 72.7041C56.4154 72.7041 59.2711 78.5117 59.5032 79.0096L59.5092 79.0207L62.5574 85.2137C62.605 85.3111 62.6271 85.419 62.6216 85.5273C62.6161 85.6356 62.5832 85.7407 62.5259 85.8328C62.4687 85.9248 62.3889 86.0008 62.2942 86.0536C62.1995 86.1064 62.093 86.1342 61.9845 86.1345H61.7017V86.7223H69.963C69.9813 86.7219 69.9975 86.7214 70.0171 86.7223Z" fill="#1D1E21"/>
<path d="M48.2185 55.9282H51.4098L50.9038 50.0933H48.756L48.2185 55.9282Z" fill="white"/>
<path d="M51.4102 56.5671H48.2185C48.1297 56.567 48.0419 56.5485 47.9607 56.5126C47.8795 56.4767 47.8066 56.4243 47.7468 56.3587C47.687 56.2931 47.6415 56.2157 47.6132 56.1316C47.5849 56.0474 47.5745 55.9583 47.5826 55.8698L48.1205 50.035C48.1352 49.8764 48.2086 49.729 48.3263 49.6216C48.444 49.5143 48.5976 49.4549 48.7568 49.4549H50.9042C51.0641 49.4549 51.2181 49.5149 51.3359 49.6229C51.4537 49.7309 51.5267 49.8792 51.5405 50.0384L52.0465 55.8733C52.0541 55.9614 52.0433 56.0502 52.0148 56.134C51.9863 56.2178 51.9407 56.2948 51.8809 56.36C51.821 56.4252 51.7483 56.4773 51.6673 56.513C51.5863 56.5486 51.4987 56.567 51.4102 56.5671ZM48.9187 55.2893H50.7134L50.3178 50.7322H49.3391L48.9187 55.2893Z" fill="#1D1E21"/>
<path d="M60.3849 64.8283H38.9253C38.8363 64.8283 38.7482 64.8457 38.6659 64.8798C38.5837 64.9138 38.509 64.9637 38.446 65.0267C38.3831 65.0896 38.3332 65.1643 38.2991 65.2465C38.2651 65.3288 38.2476 65.4169 38.2477 65.5059V69.5716C38.2476 69.6606 38.2651 69.7487 38.2991 69.831C38.3332 69.9132 38.3831 69.9879 38.446 70.0509C38.509 70.1138 38.5837 70.1637 38.6659 70.1977C38.7482 70.2318 38.8363 70.2493 38.9253 70.2492H60.3849C60.4739 70.2493 60.562 70.2318 60.6442 70.1977C60.7265 70.1637 60.8012 70.1138 60.8641 70.0509C60.9271 69.9879 60.977 69.9132 61.011 69.831C61.045 69.7487 61.0625 69.6606 61.0625 69.5716V65.5059C61.0625 65.4169 61.045 65.3288 61.011 65.2465C60.977 65.1643 60.9271 65.0896 60.8641 65.0267C60.8012 64.9637 60.7265 64.9138 60.6442 64.8798C60.562 64.8457 60.4739 64.8283 60.3849 64.8283Z" fill="white"/>
<path d="M60.3849 70.8881H38.9253C38.5763 70.8876 38.2417 70.7488 37.9949 70.502C37.7481 70.2552 37.6093 69.9206 37.6088 69.5716V65.5059C37.6093 65.1569 37.7481 64.8223 37.9949 64.5755C38.2417 64.3287 38.5763 64.1899 38.9253 64.1895H60.3849C60.7339 64.1899 61.0685 64.3287 61.3152 64.5755C61.562 64.8223 61.7009 65.1569 61.7013 65.5059V69.5716C61.7009 69.9206 61.562 70.2552 61.3152 70.502C61.0685 70.7488 60.7339 70.8876 60.3849 70.8881ZM38.9253 65.4672C38.9202 65.4671 38.9151 65.4681 38.9104 65.47C38.9057 65.4719 38.9014 65.4748 38.8978 65.4784C38.8941 65.482 38.8913 65.4863 38.8894 65.491C38.8874 65.4957 38.8865 65.5008 38.8865 65.5059V69.5716C38.8865 69.5933 38.9036 69.6103 38.9253 69.6103H60.3849C60.4061 69.6103 60.4236 69.5929 60.4236 69.5716V65.5059C60.4237 65.5008 60.4227 65.4957 60.4208 65.491C60.4188 65.4863 60.416 65.482 60.4124 65.4784C60.4088 65.4748 60.4045 65.4719 60.3997 65.47C60.395 65.4681 60.39 65.4671 60.3849 65.4672H38.9253Z" fill="#1D1E21"/>
<path d="M58.927 63.8376L54.8971 51.259C54.8562 51.1181 54.7707 50.9943 54.6534 50.9062C54.5362 50.8181 54.3934 50.7705 54.2467 50.7705H45.3679C45.2213 50.7705 45.0785 50.8181 44.9612 50.9062C44.844 50.9943 44.7585 51.1181 44.7176 51.259L40.6519 63.9616C40.6228 64.0625 40.6175 64.1689 40.6364 64.2722C40.6554 64.3756 40.698 64.4731 40.7611 64.5572C40.8241 64.6412 40.9058 64.7095 40.9997 64.7566C41.0936 64.8037 41.1972 64.8284 41.3023 64.8287H58.3124C58.3162 64.8279 58.3218 64.8287 58.3256 64.8287C58.4422 64.829 58.5569 64.7991 58.6586 64.742C58.7602 64.6849 58.8454 64.6025 58.9059 64.5028C58.9664 64.4032 59.0001 64.2895 59.0038 64.173C59.0075 64.0565 58.981 63.941 58.927 63.8376ZM46.862 64.7474L48.17 55.9278H51.4452L52.7527 64.7474H46.862Z" fill="white"/>
<path d="M58.3256 65.4672H41.3023C41.0981 65.4667 40.8968 65.4189 40.7141 65.3277C40.5315 65.2364 40.3724 65.1041 40.2494 64.9412C40.1272 64.7775 40.0446 64.5877 40.008 64.3867C39.9714 64.1857 39.9819 63.979 40.0386 63.7827L44.109 51.0644C44.2666 50.5222 44.7862 50.1321 45.3679 50.1321H54.2467C54.8281 50.1321 55.3477 50.5218 55.5108 51.0801L59.5224 63.6008C59.6142 63.8015 59.6541 64.022 59.6385 64.2421C59.6229 64.4622 59.5523 64.6748 59.4332 64.8605C59.3141 65.0463 59.1503 65.1991 58.9568 65.3051C58.7633 65.4111 58.5463 65.4668 58.3256 65.4672ZM53.3157 64.1894H58.2954L58.3295 64.189C58.3391 64.1883 58.348 64.1839 58.3545 64.1768C58.361 64.1696 58.3645 64.1603 58.3644 64.1507C58.3464 64.1125 58.3312 64.0731 58.3188 64.0327L54.2889 51.4541C54.2795 51.4213 54.2638 51.4098 54.2463 51.4098H45.3679C45.3596 51.4097 45.3515 51.4124 45.3448 51.4174C45.3381 51.4224 45.3332 51.4295 45.3309 51.4375L41.2601 64.1562L41.3023 64.1894H46.299L47.5379 55.8345C47.5604 55.6829 47.6366 55.5445 47.7526 55.4444C47.8686 55.3444 48.0167 55.2893 48.17 55.2893H51.4452C51.5983 55.2894 51.7463 55.3445 51.8622 55.4446C51.9782 55.5446 52.0543 55.683 52.0768 55.8345L53.3157 64.1894ZM47.6027 64.1089H52.012L50.894 56.5671H48.7211L47.6027 64.1089Z" fill="#1D1E21"/>
<path d="M61.8951 65.3901H37.5816C37.4111 65.3901 37.2476 65.3223 37.1271 65.2018C37.0066 65.0813 36.9389 64.9178 36.9389 64.7474C36.9389 64.5769 37.0066 64.4134 37.1271 64.2929C37.2476 64.1724 37.4111 64.1047 37.5816 64.1047H61.8951C62.0615 64.1107 62.2191 64.1811 62.3346 64.301C62.4502 64.4208 62.5148 64.5809 62.5148 64.7474C62.5148 64.9139 62.4502 65.0739 62.3346 65.1938C62.2191 65.3136 62.0615 65.384 61.8951 65.3901Z" fill="#1D1E21"/>
<path d="M61.8116 70.2492H37.4981C37.3276 70.2492 37.1642 70.1815 37.0436 70.0609C36.9231 69.9404 36.8554 69.7769 36.8554 69.6065C36.8554 69.436 36.9231 69.2726 37.0436 69.152C37.1642 69.0315 37.3276 68.9638 37.4981 68.9638H61.8116C61.978 68.9699 62.1356 69.0402 62.2512 69.1601C62.3668 69.28 62.4313 69.44 62.4313 69.6065C62.4313 69.773 62.3668 69.933 62.2512 70.0529C62.1356 70.1728 61.978 70.2431 61.8116 70.2492Z" fill="#1D1E21"/>
<path d="M55.2348 51.4332H44.3935C44.0195 51.4332 43.7159 51.1922 43.7159 50.8945V49.2781C43.7159 48.9804 44.0195 48.7394 44.3935 48.7394H55.2353C55.6092 48.7394 55.9129 48.9804 55.9129 49.2781V50.8945C55.9125 51.1922 55.6088 51.4332 55.2348 51.4332Z" fill="white"/>
<path d="M55.2348 52.0721H44.393C43.6673 52.0721 43.0766 51.544 43.0766 50.8945V49.2777C43.0766 48.6286 43.6673 48.1001 44.393 48.1001H55.2348C55.9606 48.1001 56.5513 48.6282 56.5513 49.2777V50.8945C56.5513 51.544 55.9606 52.0721 55.2348 52.0721ZM44.3547 50.791C44.3675 50.7933 44.3805 50.7945 44.3935 50.7944H55.2353C55.2483 50.7944 55.2612 50.7933 55.274 50.791V49.3812C55.2612 49.3789 55.2483 49.3777 55.2353 49.3778H44.393C44.38 49.3777 44.3671 49.3789 44.3543 49.3812V50.791H44.3547Z" fill="#1D1E21"/>
<path d="M51.6023 14.1637V13.0347C51.6023 12.7276 51.3532 12.4784 51.0461 12.4784C50.725 12.4784 49.9081 12.2178 49.9081 11.8967V9.23263V8.63934V11.8971C49.9081 12.2182 49.0916 12.4789 48.7701 12.4789C48.463 12.4789 48.2138 12.728 48.2138 13.0351V14.1642C48.1334 14.2137 48.067 14.283 48.021 14.3655C47.9749 14.4479 47.9507 14.5408 47.9506 14.6352V16.809C47.9506 17.1161 48.1998 17.3652 48.5069 17.3652H51.3097C51.6168 17.3652 51.866 17.1161 51.866 16.809V14.6352C51.8657 14.5407 51.8414 14.4478 51.7953 14.3653C51.7491 14.2828 51.6827 14.2134 51.6023 14.1637Z" fill="white"/>
<path d="M51.3093 18.0036H48.5064C48.1896 18.0032 47.8859 17.8771 47.6619 17.6531C47.4378 17.4291 47.3118 17.1253 47.3113 16.8085V14.6347C47.3113 14.357 47.4059 14.0951 47.575 13.8868V13.0346C47.5754 12.7178 47.7015 12.4141 47.9255 12.19C48.1495 11.966 48.4532 11.84 48.77 11.8395C48.8752 11.8382 49.1227 11.7654 49.2692 11.6934V8.63885C49.2692 8.46942 49.3365 8.30692 49.4563 8.18712C49.5761 8.06731 49.7386 8 49.9081 8C50.0775 8 50.24 8.06731 50.3598 8.18712C50.4796 8.30692 50.5469 8.46942 50.5469 8.63885V11.6934C50.6934 11.7654 50.9413 11.8382 51.0465 11.8395C51.3632 11.8401 51.6668 11.9662 51.8908 12.1902C52.1147 12.4142 52.2407 12.7179 52.2412 13.0346V13.8868C52.4098 14.0955 52.5044 14.357 52.5044 14.6347V16.8085C52.5039 17.1253 52.3779 17.4291 52.1538 17.6531C51.9298 17.8771 51.6261 18.0032 51.3093 18.0036ZM48.589 16.7259H51.2262V14.6807C51.1447 14.6215 51.0783 14.5438 51.0325 14.454C50.9868 14.3642 50.963 14.2649 50.963 14.1641V13.1138C50.7198 13.0959 50.279 13.0048 49.9076 12.8025C49.5367 13.0048 49.0959 13.0959 48.8522 13.1138V14.1637C48.8522 14.369 48.7534 14.561 48.5886 14.6807L48.589 16.7259Z" fill="#1D1E21"/>
<path d="M51.8331 17.5062H47.7952C47.6399 17.5061 47.491 17.4444 47.3812 17.3346C47.2714 17.2248 47.2096 17.0759 47.2095 16.9206V16.8069C47.2095 16.4836 47.4719 16.2213 47.7952 16.2213H51.8331C52.1564 16.2213 52.4188 16.4836 52.4188 16.8069V16.9206C52.4188 17.2443 52.1564 17.5062 51.8331 17.5062Z" fill="#1D1E21"/>
<path d="M64.4901 75.564L61.476 70.2479H47.5196" fill="white"/>
<path d="M64.4906 76.2029C64.3775 76.203 64.2664 76.1731 64.1687 76.1162C64.071 76.0593 63.9901 75.9776 63.9343 75.8792L61.1034 70.8864H47.5196C47.3502 70.8864 47.1877 70.819 47.0679 70.6992C46.948 70.5794 46.8807 70.4169 46.8807 70.2475C46.8807 70.0781 46.948 69.9156 47.0679 69.7958C47.1877 69.676 47.3502 69.6086 47.5196 69.6086H61.476C61.589 69.6086 61.7 69.6386 61.7976 69.6954C61.8953 69.7523 61.9761 69.834 62.0318 69.9323L65.0464 75.2485C65.1016 75.3457 65.1303 75.4557 65.1297 75.5674C65.1292 75.6792 65.0992 75.7889 65.043 75.8855C64.9867 75.9821 64.9061 76.0623 64.8092 76.118C64.7122 76.1737 64.6024 76.203 64.4906 76.2029Z" fill="#1D1E21"/>
</svg>
