<svg width="20" height="21" viewBox="0 0 20 21" fill="none" xmlns="http://www.w3.org/2000/svg">
<path d="M19.9023 18.4649C19.1072 19.797 17.6284 20.625 16.0432 20.625H3.95562C2.36789 20.625 0.889147 19.797 0.0965194 18.4649C-0.101637 18.1313 0.0147799 17.7065 0.359077 17.5145C0.703375 17.3201 1.1418 17.4353 1.33995 17.7689C1.87745 18.6713 2.88062 19.2329 3.95562 19.2329H16.0457C17.1207 19.2329 18.1238 18.6713 18.6613 17.7689C18.8595 17.4377 19.3029 17.3225 19.6422 17.5145C19.984 17.7065 20.1029 18.1313 19.9023 18.4649ZM9.49163 16.2448C9.55851 16.3096 9.63777 16.36 9.72694 16.396C9.81363 16.432 9.90776 16.4488 10.0019 16.4488C10.096 16.4488 10.1877 16.4296 10.2768 16.396C10.366 16.36 10.4453 16.3096 10.5121 16.2448L15.8054 11.1158C16.0853 10.8446 16.0853 10.4054 15.8054 10.1318C15.5255 9.85817 15.0722 9.86057 14.7898 10.1318L10.7177 14.0751V1.32103C10.7177 0.937013 10.3957 0.625 9.9994 0.625C9.60309 0.625 9.28109 0.937013 9.28109 1.32103V14.0751L5.21392 10.1318C4.93402 9.86057 4.48074 9.86057 4.19836 10.1318C3.91599 10.403 3.91847 10.8422 4.19836 11.1158L9.49163 16.2448Z" fill="black"/>
</svg>
