<svg width="20" height="21" viewBox="0 0 20 21" fill="none" xmlns="http://www.w3.org/2000/svg">
<path d="M17.8848 13.4636V17.7173C17.8848 18.4493 17.2849 19.0634 16.5785 19.0634L2.77427 19.0878C2.06788 19.0878 1.49171 18.4941 1.49171 17.762L1.51539 3.53675C1.51539 2.80881 2.11523 2.19068 2.82163 2.19068H10.4578V0.625H2.82163C1.20758 0.625 0 2.30861 0 3.81329V17.762C0 19.3399 1.24309 20.625 2.77822 20.625H16.3141C17.9321 20.625 19.4041 19.2383 19.4041 17.7173V13.4636H17.8848ZM14.3054 1.45054L20 7.33098L14.3054 13.2074V9.84826C14.3054 9.84826 8.6543 9.20166 5.35517 14.0492C5.35517 14.0492 6.39305 4.80963 14.3054 4.80963V1.45054Z" fill="#272636"/>
</svg>
